<svg xmlns="http://www.w3.org/2000/svg" viewBox="0 0 121 121"><defs><style>.cls-1{fill:#fff;}</style></defs><title>Asset 1</title><g id="Layer_2" data-name="Layer 2"><g id="Layer_1-2" data-name="Layer 1"><path class="cls-1" d="M55.47,112l-1.76,9L52,120.67l-1.49-7.55-.11,0-4.21,6.43-1.66-.33,1.76-9,1.3.26L46.36,117l.08,0,3.91-6,1.08.21,1.37,7h.07l1.27-6.52Z"/><path class="cls-1" d="M33.45,109.68a5.54,5.54,0,0,1,1.54-2,3.91,3.91,0,0,1,2-.86,4,4,0,0,1,2.17.39,4,4,0,0,1,1.69,1.42,3.94,3.94,0,0,1,.64,2.11,6.21,6.21,0,0,1-2.12,4.54,3.89,3.89,0,0,1-2,.86,4.24,4.24,0,0,1-3.86-1.81,3.9,3.9,0,0,1-.64-2.11A5.55,5.55,0,0,1,33.45,109.68Zm1.25.59a4.48,4.48,0,0,0-.47,1.84,2.67,2.67,0,0,0,.39,1.48,2.69,2.69,0,0,0,2.57,1.2,2.66,2.66,0,0,0,1.38-.65,5.1,5.1,0,0,0,1.58-3.38,2.7,2.7,0,0,0-.39-1.48,2.72,2.72,0,0,0-2.57-1.2,2.68,2.68,0,0,0-1.38.65A4.47,4.47,0,0,0,34.7,110.27Z"/><path class="cls-1" d="M26.68,99.28l1.26,1-.61,3.89,1.56,1.19L31,102.56l1.11.84-5.55,7.31-2.61-2a3.84,3.84,0,0,1-1.17-1.35,2.42,2.42,0,0,1-.24-1.45,3.05,3.05,0,0,1,.63-1.42,3,3,0,0,1,1.31-1,2.42,2.42,0,0,1,1.59,0Zm-.52,9.64,2-2.64-1.39-1.06a2.12,2.12,0,0,0-1.41-.55,1.56,1.56,0,0,0-1.11.69,1.61,1.61,0,0,0-.38,1.27,2.06,2.06,0,0,0,.89,1.23Z"/><path class="cls-1" d="M20.5,92.68,24.37,97l-6.83,6.12-3.83-4.3.89-.8,2.91,3.26,2.07-1.86-2.71-3,.89-.8,2.71,3,2.08-1.87-2.94-3.3Z"/><path class="cls-1" d="M7.34,89.4,6.72,88l5.75-5.39,0-.09-7.84.74L4,81.9l9.71-.76.66,1.48Z"/><path class="cls-1" d="M2.55,77.12l-.36-1.35L11,73.38l.36,1.35Z"/><path class="cls-1" d="M9.45,63.7l.68,5.78L1,70.54.35,64.81l1.19-.14L2.05,69l2.76-.32-.47-4,1.19-.14.47,4,2.77-.33-.51-4.39Z"/><path class="cls-1" d="M9.55,56.78l-.16,1.4L0,59.67l.17-1.46,7.24-1v-.08L.59,54.5l.17-1.44L8,52v-.08L1.18,49.36l.17-1.46,8.81,3.58L10,52.88,3,54v.07Z"/><path class="cls-1" d="M10.9,38.81a.9.9,0,0,1-.73.54A.92.92,0,0,1,9.35,39a.9.9,0,0,1-.09-.9.86.86,0,0,1,.29-.36.9.9,0,0,1,.43-.17.86.86,0,0,1,.82.36.91.91,0,0,1,.17.43A.86.86,0,0,1,10.9,38.81Z"/><path class="cls-1" d="M18.72,30.82l-7-6,1.1-1.29L20.15,26l.07-.08L16.73,19l1.1-1.29,7,6-.87,1-5-4.32-.06.06,3.25,6.36-.72.84-6.77-2.27,0,.06,5,4.33Z"/><path class="cls-1" d="M31.58,12.76a5.55,5.55,0,0,1,1,2.35,3.94,3.94,0,0,1-.25,2.19,4.28,4.28,0,0,1-3.47,2.47,3.92,3.92,0,0,1-2.14-.49,5.59,5.59,0,0,1-1.88-1.74,5.59,5.59,0,0,1-1-2.35A3.91,3.91,0,0,1,24.08,13a4,4,0,0,1,1.41-1.71,4,4,0,0,1,2.06-.77A3.87,3.87,0,0,1,29.7,11,5.53,5.53,0,0,1,31.58,12.76Zm-1.13.8a4.46,4.46,0,0,0-1.37-1.32,2.65,2.65,0,0,0-1.47-.39A2.7,2.7,0,0,0,25.3,13.5,2.67,2.67,0,0,0,25.19,15,4.47,4.47,0,0,0,26,16.75a4.46,4.46,0,0,0,1.37,1.32,2.68,2.68,0,0,0,1.48.4,2.73,2.73,0,0,0,2.31-1.65,2.7,2.7,0,0,0,.11-1.53A4.47,4.47,0,0,0,30.46,13.56Z"/><path class="cls-1" d="M43.94,12l-1.46.62-3.07-2.45-1.8.77L39,14.12l-1.28.55-3.6-8.45,3-1.29a3.81,3.81,0,0,1,1.75-.36,2.4,2.4,0,0,1,1.37.51,3.05,3.05,0,0,1,.92,1.24A3,3,0,0,1,41.39,8a2.42,2.42,0,0,1-.76,1.4Zm-8.1-5.22,1.3,3.05,1.6-.69a2.12,2.12,0,0,0,1.17-1,1.56,1.56,0,0,0-.05-1.31,1.61,1.61,0,0,0-.92-1,2.05,2.05,0,0,0-1.51.17Z"/><path class="cls-1" d="M52.72,9.85l-5.67,1.23-1.94-9L50.74.88,51,2.06,46.73,3l.59,2.72,4-.86L51.54,6l-4,.86.59,2.74,4.31-.94Z"/><path class="cls-1" d="M62.06,0l1.5.14L65.4,7.82h.1L68.73.63l1.5.14L66.09,9.61l-1.61-.15Z"/><path class="cls-1" d="M75.08,1.88l1.35.35-2.29,8.9-1.35-.35Z"/><path class="cls-1" d="M83.32,14.52,78,12.26,81.54,3.8,86.84,6l-.47,1.11-4-1.7L81.27,8,85,9.6l-.46,1.1L80.81,9.12,79.72,11.7l4.06,1.72Z"/><path class="cls-1" d="M89.26,18l-1.14-.83,3.35-8.92,1.19.87-2.74,6.79L90,16l5.67-4.64,1.17.86L94.15,19l.07,0,5.62-4.69,1.19.87-7.45,5.92-1.13-.83,2.48-6.68-.06,0Z"/><path class="cls-1" d="M104.18,28.07a.9.9,0,0,1-.11-.9.92.92,0,0,1,.72-.53.9.9,0,0,1,.83.36.86.86,0,0,1,.17.43.9.9,0,0,1-.07.46.85.85,0,0,1-.29.37.84.84,0,0,1-.43.17.9.9,0,0,1-.46-.07A.87.87,0,0,1,104.18,28.07Z"/><path class="cls-1" d="M107.25,38.84l8.62-3.11.57,1.6-5.7,5.15,0,.1,7.66.33.57,1.6-8.62,3.11L110,46.37l6.22-2.24,0-.08-7.12-.3-.37-1L114,37.92l0-.07L107.7,40.1Z"/><path class="cls-1" d="M116.57,59a5.51,5.51,0,0,1-2.54-.28,3.92,3.92,0,0,1-1.78-1.3,4.3,4.3,0,0,1-.43-4.25,3.93,3.93,0,0,1,1.48-1.63,6.17,6.17,0,0,1,5-.51,3.9,3.9,0,0,1,1.77,1.3,4.27,4.27,0,0,1,.43,4.25A3.88,3.88,0,0,1,119,58.19,5.52,5.52,0,0,1,116.57,59Zm-.14-1.38a4.44,4.44,0,0,0,1.82-.54A2.65,2.65,0,0,0,119.31,56a2.71,2.71,0,0,0-.29-2.83,2.65,2.65,0,0,0-1.26-.85,5.07,5.07,0,0,0-3.7.38A2.69,2.69,0,0,0,113,53.74a2.74,2.74,0,0,0,.29,2.83,2.69,2.69,0,0,0,1.27.85A4.44,4.44,0,0,0,116.43,57.59Z"/><path class="cls-1" d="M111.13,70.13l.18-1.58L115,67.09l.22-2-3.44-.39.16-1.39,9.11,1-.37,3.26a3.84,3.84,0,0,1-.56,1.7,2.41,2.41,0,0,1-1.12.95,3,3,0,0,1-1.53.19,2.94,2.94,0,0,1-1.55-.6,2.42,2.42,0,0,1-.83-1.35Zm8.52-4.49-3.29-.37L116.17,67a2.13,2.13,0,0,0,.25,1.49,1.55,1.55,0,0,0,1.16.6,1.6,1.6,0,0,0,1.28-.33,2.06,2.06,0,0,0,.6-1.4Z"/><path class="cls-1" d="M108.65,78.84l1.73-5.55L119.13,76l-1.72,5.51-1.14-.36,1.3-4.17-2.65-.83-1.21,3.89-1.14-.36,1.21-3.89L111.11,75,109.8,79.2Z"/><path class="cls-1" d="M112.59,91.85l-.86,1.24-7.57-2.19-.06.08,4.65,6.38-.86,1.24-5.63-8,.92-1.33Z"/><path class="cls-1" d="M104.53,102.27l-1,1L97,96.88l1-1Z"/><path class="cls-1" d="M89.5,103.21l4.6-3.54L99.68,107l-4.56,3.51-.73-1,3.46-2.66-1.69-2.21-3.22,2.48-.73-.95,3.22-2.48-1.7-2.22-3.5,2.69Z"/><path class="cls-1" d="M83.53,106.67l1.28-.58,6.09,7.33-1.34.61L85,108.28l-.08,0,1.23,7.24-1.32.6-4.6-5.71-.07,0,1.29,7.21-1.34.61-1.45-9.42,1.28-.58,4.57,5.46.07,0Z"/><path class="cls-1" d="M67.45,114.72a.9.9,0,0,1,.83.35.92.92,0,0,1,.11.89.9.9,0,0,1-.72.54.85.85,0,0,1-.45-.07.9.9,0,0,1-.36-.29.87.87,0,0,1-.11-.89.9.9,0,0,1,.28-.36A.87.87,0,0,1,67.45,114.72Z"/></g></g></svg>